<?xml version="1.0" encoding="UTF-8"?>
<svg version="1.1" xmlns="http://www.w3.org/2000/svg" width="256" height="256">
<path d="M0 0 C1.58559163 0.00051974 3.17118391 -0.00000236 4.7567749 -0.00151062 C8.06158202 -0.00142142 11.36614253 0.00890455 14.67089844 0.02709961 C18.89630499 0.04985965 23.12135446 0.05031177 27.34680557 0.04358196 C30.61369984 0.04023475 33.88051335 0.04688501 37.14739227 0.0567112 C38.70543749 0.06054491 40.26349171 0.06171904 41.82154083 0.06012535 C43.99871351 0.05975268 46.17543457 0.07242815 48.35253906 0.08862305 C50.20591888 0.09553413 50.20591888 0.09553413 52.09674072 0.10258484 C55.53139329 0.36689956 58.28043122 1.13046073 61.484375 2.36328125 C61.484375 3.35328125 61.484375 4.34328125 61.484375 5.36328125 C62.7425 5.26015625 64.000625 5.15703125 65.296875 5.05078125 C67.52734375 5.0390625 67.52734375 5.0390625 69.484375 5.36328125 C71.109375 7.73828125 71.109375 7.73828125 72.484375 10.36328125 C73.4125 10.61078125 74.340625 10.85828125 75.296875 11.11328125 C81.20643424 13.43075546 83.53239159 19.49214143 86.296875 24.92578125 C88.02048796 29.91518719 89.36046568 34.19610957 87.296875 39.30078125 C85.484375 41.36328125 85.484375 41.36328125 81.484375 42.36328125 C81.484375 48.96328125 81.484375 55.56328125 81.484375 62.36328125 C84.784375 62.36328125 88.084375 62.36328125 91.484375 62.36328125 C94.609375 64.30078125 94.609375 64.30078125 96.484375 67.36328125 C97.54147058 73.00112432 96.62880914 77.53432883 93.484375 82.36328125 C92.81019531 82.95625 92.13601562 83.54921875 91.44140625 84.16015625 C88.9992601 86.90939862 88.81903017 88.68073474 88.421875 92.30078125 C87.91992382 96.76194284 87.01909032 99.63333431 84.484375 103.36328125 C86.794375 103.36328125 89.104375 103.36328125 91.484375 103.36328125 C91.484375 104.02328125 91.484375 104.68328125 91.484375 105.36328125 C93.134375 105.36328125 94.784375 105.36328125 96.484375 105.36328125 C96.484375 104.70328125 96.484375 104.04328125 96.484375 103.36328125 C98.134375 103.36328125 99.784375 103.36328125 101.484375 103.36328125 C101.484375 104.02328125 101.484375 104.68328125 101.484375 105.36328125 C103.134375 105.36328125 104.784375 105.36328125 106.484375 105.36328125 C106.484375 104.70328125 106.484375 104.04328125 106.484375 103.36328125 C108.90291946 103.22791496 111.31387283 103.12907846 113.734375 103.05078125 C114.41628906 103.00888672 115.09820312 102.96699219 115.80078125 102.92382812 C119.52842545 102.83335132 121.14332818 103.05677082 123.953125 105.58203125 C125.55037482 108.48315848 125.9288407 109.91848069 125.734375 113.17578125 C125.69828125 113.96597656 125.6621875 114.75617188 125.625 115.5703125 C125.57859375 116.16199219 125.5321875 116.75367188 125.484375 117.36328125 C126.53238281 117.32847656 127.58039063 117.29367188 128.66015625 117.2578125 C130.03904647 117.22967188 131.41795402 117.20237201 132.796875 117.17578125 C133.48716797 117.15064453 134.17746094 117.12550781 134.88867188 117.09960938 C139.99528574 117.02560048 139.99528574 117.02560048 142.40234375 118.6875 C145.7886412 123.93198234 144.70947593 130.75005552 144.734375 136.73828125 C144.755 137.970625 144.775625 139.20296875 144.796875 140.47265625 C144.80460937 142.25542969 144.80460937 142.25542969 144.8125 144.07421875 C144.8218457 145.16009277 144.83119141 146.2459668 144.84082031 147.36474609 C144.43701277 150.76170787 143.50638745 152.62931858 141.484375 155.36328125 C138.01209622 157.09942064 133.98206787 156.50730287 130.15945435 156.50372314 C129.18051519 156.50669427 128.20157604 156.50966539 127.19297206 156.51272655 C123.89182313 156.52144227 120.59071033 156.52292421 117.28955078 156.52441406 C114.9312431 156.52904017 112.57293617 156.53406454 110.21463013 156.53945923 C103.12305879 156.5539762 96.03149521 156.55996979 88.93991166 156.56485474 C85.60217127 156.56743084 82.2644322 156.5712212 78.92669296 156.57497406 C67.8348029 156.58716766 56.74291477 156.59746695 45.65101814 156.60084915 C44.94086793 156.60106872 44.23071772 156.60128828 43.49904781 156.6015145 C42.43124359 156.60184192 42.43124359 156.60184192 41.34186757 156.60217595 C39.89929843 156.60261942 38.45672929 156.60306598 37.01416016 156.60351562 C36.29859286 156.60373705 35.58302556 156.60395848 34.8457744 156.60418662 C23.24762633 156.60813574 11.64954105 156.62559278 0.05141725 156.64887515 C-11.8499585 156.67257387 -23.75130272 156.68505032 -35.65270245 156.68621707 C-42.33743683 156.68713464 -49.02210055 156.69322468 -55.70681381 156.71103668 C-61.99240137 156.7274589 -68.2778333 156.72970138 -74.5634346 156.72089767 C-76.87416753 156.72012418 -79.18490864 156.72451082 -81.49562073 156.73435593 C-84.64284742 156.74698179 -87.78951504 156.74124964 -90.93673706 156.73077393 C-91.85754905 156.73883033 -92.77836103 156.74688673 -93.72707641 156.75518727 C-99.86246873 156.70721162 -99.86246873 156.70721162 -103.0518055 155.02781296 C-107.14461046 150.37382139 -105.74150649 142.7887825 -105.765625 136.98828125 C-105.7965625 135.13976562 -105.7965625 135.13976562 -105.828125 133.25390625 C-105.83328125 132.06539062 -105.8384375 130.876875 -105.84375 129.65234375 C-105.8530957 128.56646973 -105.86244141 127.4805957 -105.87207031 126.36181641 C-105.4343895 122.6799015 -104.15602691 120.00368316 -101.515625 117.36328125 C-98.98513098 117.29014558 -96.48257663 117.27080598 -93.953125 117.30078125 C-93.24220703 117.30529297 -92.53128906 117.30980469 -91.79882812 117.31445312 C-90.03772487 117.32627261 -88.27666464 117.34420862 -86.515625 117.36328125 C-86.58523437 116.47576172 -86.58523437 116.47576172 -86.65625 115.5703125 C-86.71039063 114.38501953 -86.71039063 114.38501953 -86.765625 113.17578125 C-86.83523437 112.00982422 -86.83523437 112.00982422 -86.90625 110.8203125 C-86.34085426 107.26397331 -85.1264229 105.83977466 -82.515625 103.36328125 C-79.49059733 102.91735243 -77.04328356 102.77644373 -74.03125 102.875 C-73.21565613 102.88207474 -72.40006226 102.88914948 -71.55975342 102.8964386 C-68.96076819 102.92437581 -66.36395628 102.98710844 -63.765625 103.05078125 C-62.00133325 103.0758652 -60.23700765 103.09867821 -58.47265625 103.11914062 C-54.15281144 103.17419971 -49.83458637 103.2604639 -45.515625 103.36328125 C-45.99467285 102.58533203 -46.4737207 101.80738281 -46.96728516 101.00585938 C-48.39437992 98.5702123 -49.1581775 96.56477591 -49.890625 93.86328125 C-51.22165754 89.60114512 -53.1639544 87.36214442 -56.515625 84.36328125 C-58.33196995 78.91424641 -58.48394166 72.68724122 -56.265625 67.36328125 C-53.01255752 63.64548984 -53.01255752 63.64548984 -50.515625 62.36328125 C-47.875625 62.36328125 -45.235625 62.36328125 -42.515625 62.36328125 C-42.515625 55.76328125 -42.515625 49.16328125 -42.515625 42.36328125 C-44.165625 41.70328125 -45.815625 41.04328125 -47.515625 40.36328125 C-49.36073777 37.364973 -49.65078215 35.27594036 -49.13671875 31.8046875 C-47.62189972 25.56363311 -45.30672121 20.52053826 -41.515625 15.36328125 C-40.79375 14.33203125 -40.071875 13.30078125 -39.328125 12.23828125 C-29.19121957 0.61251783 -14.24497285 -0.09283913 0 0 Z " fill="#060402" transform="translate(108.515625,96.63671875)"/>
<path d="M0 0 C0.97893915 -0.00297112 1.95787831 -0.00594224 2.96648228 -0.0090034 C6.26763122 -0.01771912 9.56874401 -0.01920106 12.86990356 -0.02069092 C15.22821124 -0.02531702 17.58651817 -0.0303414 19.94482422 -0.03573608 C27.03639555 -0.05025306 34.12795914 -0.05624664 41.21954268 -0.0611316 C44.55728308 -0.06370769 47.89502215 -0.06749805 51.23276138 -0.07125092 C62.32465145 -0.08344452 73.41653958 -0.09374381 84.5084362 -0.09712601 C85.21858641 -0.09734557 85.92873662 -0.09756514 86.66040654 -0.09779136 C87.72821076 -0.09811878 87.72821076 -0.09811878 88.81758678 -0.09845281 C90.26015592 -0.09889628 91.70272505 -0.09934284 93.14529419 -0.09979248 C93.86086149 -0.10001391 94.57642879 -0.10023534 95.31367995 -0.10046348 C106.91182802 -0.10441259 118.50991329 -0.12186964 130.1080371 -0.145152 C142.00941285 -0.16885073 153.91075707 -0.18132717 165.8121568 -0.18249393 C172.49689117 -0.1834115 179.18155489 -0.18950154 185.86626816 -0.20731354 C192.15185572 -0.22373576 198.43728764 -0.22597824 204.72288895 -0.21717453 C207.03362188 -0.21640104 209.34436298 -0.22078767 211.65507507 -0.23063278 C214.80230177 -0.24325864 217.94896938 -0.23752649 221.09619141 -0.22705078 C222.01700339 -0.23510719 222.93781538 -0.24316359 223.88653076 -0.25146413 C230.02192308 -0.20348847 230.02192308 -0.20348847 233.21125984 1.47591019 C237.3040648 6.12990176 235.90096084 13.71494065 235.92507935 19.51544189 C235.95601685 21.36395752 235.95601685 21.36395752 235.98757935 23.24981689 C235.99531372 25.03259033 235.99531372 25.03259033 236.00320435 26.85137939 C236.01255005 27.93725342 236.02189575 29.02312744 236.03152466 30.14190674 C235.62771712 33.53886851 234.6970918 35.40647923 232.67507935 38.14044189 C229.40426804 39.77584755 225.78290106 39.32095514 222.18630981 39.34576416 C221.30819641 39.35566376 220.43008301 39.36556335 219.52536011 39.37576294 C216.61435672 39.40742464 213.703337 39.43215381 210.79226685 39.45684814 C208.77729867 39.47741364 206.76233485 39.49841 204.74737549 39.51982117 C199.43734253 39.57508361 194.12727038 39.62447447 188.81716919 39.67266846 C183.40128073 39.72285305 177.98544937 39.77855497 172.5696106 39.83380127 C161.93814893 39.94143386 151.30663774 40.04286749 140.67507935 40.14044189 C140.33734497 41.27223877 139.9996106 42.40403564 139.65164185 43.57012939 C139.20145297 45.05200112 138.75091391 46.53376649 138.30007935 48.01544189 C138.0783606 48.76180908 137.85664185 49.50817627 137.62820435 50.27716064 C135.90164185 55.91387939 135.90164185 55.91387939 133.67507935 58.14044189 C130.05007935 58.26544189 130.05007935 58.26544189 126.67507935 58.14044189 C126.73308716 59.03247314 126.79109497 59.92450439 126.8508606 60.84356689 C126.89597778 62.01403564 126.94109497 63.18450439 126.98757935 64.39044189 C127.07459106 66.13067627 127.07459106 66.13067627 127.1633606 67.90606689 C126.67507935 71.14044189 126.67507935 71.14044189 124.42507935 73.54669189 C120.46660426 75.84080814 118.16696841 75.44497675 113.67507935 75.14044189 C113.67507935 78.11044189 113.67507935 81.08044189 113.67507935 84.14044189 C112.01893277 84.52262957 110.3505091 84.85439291 108.67507935 85.14044189 C107.67507935 84.14044189 107.67507935 84.14044189 107.5774231 82.07403564 C107.58902466 81.25032471 107.60062622 80.42661377 107.61257935 79.57794189 C107.62160278 78.75165283 107.63062622 77.92536377 107.6399231 77.07403564 C107.65152466 76.43594971 107.66312622 75.79786377 107.67507935 75.14044189 C106.45820435 75.22294189 105.24132935 75.30544189 103.98757935 75.39044189 C100.88577873 75.60073346 99.67409878 75.13987361 96.92507935 73.54669189 C94.67507935 71.14044189 94.67507935 71.14044189 94.1867981 67.90606689 C94.24480591 66.74591064 94.30281372 65.58575439 94.36257935 64.39044189 C94.40769653 63.21997314 94.45281372 62.04950439 94.4992981 60.84356689 C94.55730591 59.95153564 94.61531372 59.05950439 94.67507935 58.14044189 C93.03539185 58.29512939 93.03539185 58.29512939 91.36257935 58.45294189 C90.14570435 58.34981689 88.92882935 58.24669189 87.67507935 58.14044189 C84.67507935 53.14044189 84.67507935 53.14044189 80.67507935 40.14044189 C65.49507935 39.81044189 50.31507935 39.48044189 34.67507935 39.14044189 C34.67507935 38.48044189 34.67507935 37.82044189 34.67507935 37.14044189 C33.59226685 37.63544189 33.59226685 37.63544189 32.48757935 38.14044189 C29.65810508 39.14647719 27.64612469 39.31021591 24.67507935 39.14044189 C24.67507935 38.48044189 24.67507935 37.82044189 24.67507935 37.14044189 C23.99332642 37.46423828 23.31157349 37.78803467 22.60916138 38.12164307 C17.46129379 39.90913279 12.04037458 39.47327322 6.64529419 39.45611572 C4.54923201 39.45294061 2.45456263 39.47649765 0.3586731 39.50177002 C-0.97596055 39.50404181 -2.31059797 39.50474707 -3.64523315 39.50372314 C-4.85453491 39.5067041 -6.06383667 39.50968506 -7.30978394 39.51275635 C-10.32492065 39.14044189 -10.32492065 39.14044189 -12.17990112 37.80523682 C-15.70385662 32.68160088 -14.55023918 25.70133658 -14.57492065 19.76544189 C-14.59554565 18.53309814 -14.61617065 17.30075439 -14.63742065 16.03106689 C-14.6425769 14.84255127 -14.64773315 13.65403564 -14.65304565 12.42950439 C-14.66239136 11.34363037 -14.67173706 10.25775635 -14.68136597 9.13897705 C-14.27755843 5.74201528 -13.34693311 3.87440456 -11.32492065 1.14044189 C-7.85264187 -0.5956975 -3.82261353 -0.00357973 0 0 Z " fill="#6EBBE1" transform="translate(17.324920654296875,2.85955810546875)"/>
<path d="M0 0 C0.91466884 0.00223072 1.82933767 0.00446144 2.77172375 0.00675976 C3.73559096 0.00519977 4.69945818 0.00363978 5.69253349 0.00203252 C8.948519 -0.00198196 12.20445853 0.00121389 15.46044445 0.00434887 C17.7840633 0.00299503 20.10768194 0.0012152 22.43130016 -0.00096118 C28.76169004 -0.00553754 35.0920637 -0.00374513 41.42245388 -0.0005821 C47.36220677 0.00168515 53.30195761 -0.00004094 59.24171054 -0.00150929 C71.72299181 -0.00436418 84.20426574 -0.00107693 96.6855458 0.00429107 C107.40641413 0.00875912 118.12727163 0.00798319 128.84813976 0.00337231 C141.2832717 -0.0019733 153.7183972 -0.00408949 166.15353012 -0.00101542 C172.74146376 0.00054783 179.32938994 0.0007398 185.91732311 -0.00255191 C192.10927992 -0.00542937 198.30121617 -0.00345725 204.49317074 0.00234234 C206.77290723 0.00367062 209.05264543 0.00327469 211.33238125 0.00107968 C214.43018716 -0.00162919 217.52792608 0.00174606 220.62572765 0.00675976 C221.54039649 0.00452904 222.45506533 0.00229832 223.3974514 0 C229.58457589 0.01959359 229.58457589 0.01959359 230.6987257 1.13374341 C230.79855628 3.12131368 230.82953323 5.1124186 230.8315382 7.10249341 C230.83282726 8.31292309 230.83411633 9.52335278 230.83544445 10.77046216 C230.83157726 12.04534497 230.82771008 13.32022778 230.8237257 14.63374341 C230.82759289 15.90862622 230.83146008 17.18350903 230.83544445 18.49702466 C230.83351086 20.31266919 230.83351086 20.31266919 230.8315382 22.16499341 C230.83041027 23.28454419 230.82928234 24.40409497 230.82812023 25.55757153 C230.6987257 28.13374341 230.6987257 28.13374341 229.6987257 29.13374341 C226.66698835 29.23398563 223.65795264 29.26812213 220.62572765 29.26072705 C219.66186044 29.26228704 218.69799322 29.26384703 217.70491791 29.26545429 C214.44893241 29.26946877 211.19299287 29.26627292 207.93700695 29.26313794 C205.6133881 29.26449178 203.28976946 29.26627161 200.96615124 29.268448 C194.63576136 29.27302435 188.3053877 29.27123194 181.97499752 29.26806891 C176.03524463 29.26580166 170.09549379 29.26752775 164.15574086 29.2689961 C151.67445959 29.27185099 139.19318566 29.26856374 126.7119056 29.26319574 C115.99103727 29.25872769 105.27017977 29.25950362 94.54931164 29.2641145 C82.1141797 29.26946011 69.6790542 29.2715763 57.24392128 29.26850224 C50.65598764 29.26693898 44.06806146 29.26674701 37.48012829 29.27003872 C31.28817149 29.27291618 25.09623523 29.27094407 18.90428066 29.26514447 C16.62454417 29.26381619 14.34480597 29.26421212 12.06507015 29.26640713 C8.96726424 29.269116 5.86952532 29.26574075 2.77172375 29.26072705 C1.85705491 29.26295777 0.94238607 29.26518849 0 29.26748681 C-6.18712449 29.24789322 -6.18712449 29.24789322 -7.3012743 28.13374341 C-7.40110488 26.14617313 -7.43208183 24.15506821 -7.4340868 22.16499341 C-7.43537586 20.95456372 -7.43666492 19.74413403 -7.43799305 18.49702466 C-7.43412586 17.22214184 -7.43025867 15.94725903 -7.4262743 14.63374341 C-7.43014149 13.35886059 -7.43400867 12.08397778 -7.43799305 10.77046216 C-7.43670399 9.56003247 -7.43541492 8.34960278 -7.4340868 7.10249341 C-7.43295887 5.98294262 -7.43183094 4.86339184 -7.43066883 3.70991528 C-7.18088176 -1.26320383 -4.30191641 0.01362345 0 0 Z " fill="#6EBBE1" transform="translate(16.301274299621582,218.8662565946579)"/>
<path d="M0 0 C0.97893915 -0.00297112 1.95787831 -0.00594224 2.96648228 -0.0090034 C6.26763122 -0.01771912 9.56874401 -0.01920106 12.86990356 -0.02069092 C15.22821124 -0.02531702 17.58651817 -0.0303414 19.94482422 -0.03573608 C27.03639555 -0.05025306 34.12795914 -0.05624664 41.21954268 -0.0611316 C44.55728308 -0.06370769 47.89502215 -0.06749805 51.23276138 -0.07125092 C62.32465145 -0.08344452 73.41653958 -0.09374381 84.5084362 -0.09712601 C85.21858641 -0.09734557 85.92873662 -0.09756514 86.66040654 -0.09779136 C87.72821076 -0.09811878 87.72821076 -0.09811878 88.81758678 -0.09845281 C90.26015592 -0.09889628 91.70272505 -0.09934284 93.14529419 -0.09979248 C93.86086149 -0.10001391 94.57642879 -0.10023534 95.31367995 -0.10046348 C106.91182802 -0.10441259 118.50991329 -0.12186964 130.1080371 -0.145152 C142.00941285 -0.16885073 153.91075707 -0.18132717 165.8121568 -0.18249393 C172.49689117 -0.1834115 179.18155489 -0.18950154 185.86626816 -0.20731354 C192.15185572 -0.22373576 198.43728764 -0.22597824 204.72288895 -0.21717453 C207.03362188 -0.21640104 209.34436298 -0.22078767 211.65507507 -0.23063278 C214.80230177 -0.24325864 217.94896938 -0.23752649 221.09619141 -0.22705078 C222.01700339 -0.23510719 222.93781538 -0.24316359 223.88653076 -0.25146413 C230.02192308 -0.20348847 230.02192308 -0.20348847 233.21125984 1.47591019 C237.3040648 6.12990176 235.90096084 13.71494065 235.92507935 19.51544189 C235.95601685 21.36395752 235.95601685 21.36395752 235.98757935 23.24981689 C235.99531372 25.03259033 235.99531372 25.03259033 236.00320435 26.85137939 C236.01255005 27.93725342 236.02189575 29.02312744 236.03152466 30.14190674 C235.62771712 33.53886851 234.6970918 35.40647923 232.67507935 38.14044189 C229.40426804 39.77584755 225.78290106 39.32095514 222.18630981 39.34576416 C221.30819641 39.35566376 220.43008301 39.36556335 219.52536011 39.37576294 C216.61435672 39.40742464 213.703337 39.43215381 210.79226685 39.45684814 C208.77729867 39.47741364 206.76233485 39.49841 204.74737549 39.51982117 C199.43734253 39.57508361 194.12727038 39.62447447 188.81716919 39.67266846 C183.40128073 39.72285305 177.98544937 39.77855497 172.5696106 39.83380127 C161.93814893 39.94143386 151.30663774 40.04286749 140.67507935 40.14044189 C140.33734497 41.27223877 139.9996106 42.40403564 139.65164185 43.57012939 C139.20145297 45.05200112 138.75091391 46.53376649 138.30007935 48.01544189 C138.0783606 48.76180908 137.85664185 49.50817627 137.62820435 50.27716064 C135.90164185 55.91387939 135.90164185 55.91387939 133.67507935 58.14044189 C130.05007935 58.26544189 130.05007935 58.26544189 126.67507935 58.14044189 C126.73308716 59.03247314 126.79109497 59.92450439 126.8508606 60.84356689 C126.89597778 62.01403564 126.94109497 63.18450439 126.98757935 64.39044189 C127.07459106 66.13067627 127.07459106 66.13067627 127.1633606 67.90606689 C126.67507935 71.14044189 126.67507935 71.14044189 124.42507935 73.54669189 C120.46660426 75.84080814 118.16696841 75.44497675 113.67507935 75.14044189 C113.67507935 78.11044189 113.67507935 81.08044189 113.67507935 84.14044189 C112.01893277 84.52262957 110.3505091 84.85439291 108.67507935 85.14044189 C107.67507935 84.14044189 107.67507935 84.14044189 107.5774231 82.07403564 C107.58902466 81.25032471 107.60062622 80.42661377 107.61257935 79.57794189 C107.62160278 78.75165283 107.63062622 77.92536377 107.6399231 77.07403564 C107.65152466 76.43594971 107.66312622 75.79786377 107.67507935 75.14044189 C106.45820435 75.22294189 105.24132935 75.30544189 103.98757935 75.39044189 C100.88577873 75.60073346 99.67409878 75.13987361 96.92507935 73.54669189 C94.67507935 71.14044189 94.67507935 71.14044189 94.1867981 67.90606689 C94.24480591 66.74591064 94.30281372 65.58575439 94.36257935 64.39044189 C94.40769653 63.21997314 94.45281372 62.04950439 94.4992981 60.84356689 C94.55730591 59.95153564 94.61531372 59.05950439 94.67507935 58.14044189 C93.03539185 58.29512939 93.03539185 58.29512939 91.36257935 58.45294189 C90.14570435 58.34981689 88.92882935 58.24669189 87.67507935 58.14044189 C84.67507935 53.14044189 84.67507935 53.14044189 80.67507935 40.14044189 C65.49507935 39.81044189 50.31507935 39.48044189 34.67507935 39.14044189 C35.00507935 37.49044189 35.33507935 35.84044189 35.67507935 34.14044189 C131.21007935 33.64544189 131.21007935 33.64544189 228.67507935 33.14044189 C228.67507935 24.23044189 228.67507935 15.32044189 228.67507935 6.14044189 C150.79507935 6.14044189 72.91507935 6.14044189 -7.32492065 6.14044189 C-7.32492065 15.05044189 -7.32492065 23.96044189 -7.32492065 33.14044189 C5.54507935 33.63544189 5.54507935 33.63544189 18.67507935 34.14044189 C19.33507935 35.46044189 19.99507935 36.78044189 20.67507935 38.14044189 C18.05688827 40.75863297 10.7047586 39.37030303 6.947052 39.38067627 C4.81563131 39.39037116 2.68517926 39.42137596 0.5539856 39.45294189 C-0.79887325 39.4594729 -2.15173901 39.46472299 -3.50460815 39.46856689 C-5.35674927 39.48258545 -5.35674927 39.48258545 -7.24630737 39.49688721 C-10.32492065 39.14044189 -10.32492065 39.14044189 -12.18869019 37.80743408 C-15.69325714 32.6657961 -14.55020597 25.70932445 -14.57492065 19.76544189 C-14.59554565 18.53309814 -14.61617065 17.30075439 -14.63742065 16.03106689 C-14.6425769 14.84255127 -14.64773315 13.65403564 -14.65304565 12.42950439 C-14.66239136 11.34363037 -14.67173706 10.25775635 -14.68136597 9.13897705 C-14.27755843 5.74201528 -13.34693311 3.87440456 -11.32492065 1.14044189 C-7.85264187 -0.5956975 -3.82261353 -0.00357973 0 0 Z " fill="#010101" transform="translate(17.324920654296875,2.85955810546875)"/>
<path d="M0 0 C2.44396973 -0.072052 2.44396973 -0.072052 5.98596191 0.10348511 C8.5886616 2.90639246 9.70908903 5.23331317 10.86096191 8.85348511 C11.94559089 11.98685771 13.25136796 14.15418039 15.04846191 16.91598511 C18.07567114 21.78905362 18.89524772 25.38849067 18.98596191 31.10348511 C17.33860065 32.75084637 15.43440899 32.22953073 13.16491699 32.23046875 C12.12163239 32.23328857 11.07834778 32.2361084 10.00344849 32.23901367 C8.84912323 32.23698944 7.69479797 32.23496521 6.50549316 32.23287964 C5.29751068 32.23463196 4.0895282 32.23638428 2.84494019 32.2381897 C-0.47729762 32.24184788 -3.79947352 32.24097479 -7.12170792 32.23781061 C-10.59127132 32.23528662 -14.060832 32.23762466 -17.53039551 32.23919678 C-23.3579557 32.24101836 -29.18550325 32.23861246 -35.01306152 32.2338562 C-41.75965101 32.2284136 -48.50621028 32.23017626 -55.25279903 32.23568261 C-61.03537982 32.24021406 -66.81795149 32.24086413 -72.60053349 32.23824394 C-76.05855365 32.23668134 -79.51655959 32.23648692 -82.97457886 32.23978043 C-86.82758772 32.2431935 -90.68056248 32.23846887 -94.53356934 32.23287964 C-96.26505722 32.23591599 -96.26505722 32.23591599 -98.03152466 32.23901367 C-99.59645157 32.23478394 -99.59645157 32.23478394 -101.19299316 32.23046875 C-102.10519119 32.23009172 -103.01738922 32.2297147 -103.95722961 32.22932625 C-106.01403809 32.10348511 -106.01403809 32.10348511 -107.01403809 31.10348511 C-106.56661797 22.60250293 -103.466316 14.91203228 -97.01403809 9.10348511 C-88.99338559 3.24828781 -83.32890331 0.97988209 -73.42907715 0.89816284 C-72.30849915 0.88331345 -72.30849915 0.88331345 -71.1652832 0.86816406 C-68.70344158 0.83666555 -66.24158114 0.81181938 -63.77966309 0.78707886 C-62.0595859 0.76648103 -60.33951346 0.74548386 -58.6194458 0.72410583 C-54.09216328 0.66897925 -49.56483529 0.61956635 -45.03747559 0.57125854 C-40.4540983 0.52122872 -35.87079332 0.46529542 -31.28747559 0.41012573 C-13.11527949 0.19471618 -13.11527949 0.19471618 -6.80249023 0.14569092 C-4.53461423 0.12042531 -2.26668109 0.07782507 0 0 Z " fill="#E3A21E" transform="translate(172.0140380859375,101.89651489257813)"/>
<path d="M0 0 C0.99773437 -0.02771484 1.99546875 -0.05542969 3.0234375 -0.08398438 C5.82307491 -0.07460221 8.28055973 0.01736857 11 0.6875 C13.5625 3.66796875 13.5625 3.66796875 15 6.6875 C18.35819817 8.36659909 21.70874877 8.08204899 25.25 7 C27.57769134 5.2542315 28.01072816 3.37328627 29 0.6875 C33.73219762 0.58822847 38.46378213 0.51584367 43.19677734 0.46777344 C44.80495774 0.44772373 46.41306583 0.42047636 48.02099609 0.38574219 C50.3397002 0.33692736 52.65743625 0.31446572 54.9765625 0.296875 C55.68930328 0.27622986 56.40204407 0.25558472 57.13638306 0.23431396 C62.23305719 0.23205035 65.07308249 1.49359716 69 4.6875 C70.20703125 6.57421875 70.20703125 6.57421875 70.8125 8.375 C71.66483145 11.49466688 71.66483145 11.49466688 73 12.6875 C78.08184248 13.34669714 78.08184248 13.34669714 82.48876953 11.45996094 C84.2303002 9.41739023 85.14912818 7.47060882 86.1875 5 C86.70376953 3.78763672 86.70376953 3.78763672 87.23046875 2.55078125 C87.48441406 1.93589844 87.73835938 1.32101563 88 0.6875 C93.35683849 0.63808618 98.7135445 0.60177393 104.07055664 0.57763672 C105.89317129 0.56757509 107.71576979 0.5539244 109.53833008 0.53662109 C112.15710435 0.51237979 114.77566531 0.50101862 117.39453125 0.4921875 C118.21025101 0.48186493 119.02597076 0.47154236 119.8664093 0.46090698 C123.77130756 0.4601314 125.67524008 0.47099339 129 2.6875 C128.76874532 8.35323973 127.32998749 11.09158437 123.5703125 15.3046875 C120.11288817 18.34928505 115.86296691 18.00731645 111.50390625 17.98828125 C107.95434299 17.56189066 105.79913076 15.82017105 103 13.6875 C97.90718595 13.6875 96.70478137 15.38541226 93 18.6875 C90.6738422 19.8505789 89.27336491 19.82119198 86.6875 19.8125 C85.88054687 19.81121094 85.07359375 19.80992187 84.2421875 19.80859375 C82 19.6875 82 19.6875 79.3125 18.875 C76.65582103 18.40065738 76.65582103 18.40065738 73.875 21.0625 C72.92625 21.92875 71.9775 22.795 71 23.6875 C67.28210947 24.92679684 63.8626812 25.244547 60 24.6875 C56.75 22.75 56.75 22.75 54 20.6875 C52.0745356 19.5384288 52.0745356 19.5384288 50 19.6875 C49.0925 20.326875 48.185 20.96625 47.25 21.625 C43.37941615 24.08133206 40.42165979 24.53420081 36 23.6875 C31.16389247 21.85311439 27.9383101 18.91866655 25 14.6875 C24.443125 14.84992188 23.88625 15.01234375 23.3125 15.1796875 C20.80771628 15.72972447 18.562519 15.82031256 16 15.8125 C14.7315625 15.81636719 14.7315625 15.81636719 13.4375 15.8203125 C11 15.6875 11 15.6875 8.8828125 15.03125 C8.26148437 14.9178125 7.64015625 14.804375 7 14.6875 C3.84151217 17.01401508 3.84151217 17.01401508 1 19.6875 C-1.95793723 21.16646861 -3.70220224 21.1230582 -7 20.6875 C-10.22254402 18.55009835 -13.25333994 16.18082012 -15 12.6875 C-15.35683472 8.90505192 -15.36858643 6.43115825 -13.66796875 3 C-9.49467461 -0.61726227 -5.34427771 -0.07940464 0 0 Z " fill="#12B869" transform="translate(71,163.3125)"/>
<path d="M0 0 C1.65 0 3.3 0 5 0 C5 0.66 5 1.32 5 2 C6.65 2 8.3 2 10 2 C10.33 2.66 10.66 3.32 11 4 C13.55351113 4.43052263 13.55351113 4.43052263 16.5 4.5625 C21.90371389 4.90371389 21.90371389 4.90371389 23 6 C23 8.64 23 11.28 23 14 C-43 14 -109 14 -177 14 C-177 6 -177 6 -176 5 C-173.81072047 4.8907211 -171.61786418 4.85307215 -169.42588806 4.84178162 C-168.73082974 4.83684364 -168.03577141 4.83190566 -167.31965071 4.82681805 C-164.9734383 4.81136976 -162.62725339 4.80306273 -160.28100586 4.79467773 C-158.60600031 4.78510496 -156.93099722 4.77509524 -155.2559967 4.76467896 C-150.69423353 4.73755871 -146.13245993 4.71658783 -141.57066035 4.69667697 C-136.80868918 4.67486117 -132.04675038 4.647451 -127.2848053 4.62062073 C-118.26086782 4.57063406 -109.23691242 4.52571748 -100.2129398 4.48259836 C-89.94223214 4.43327693 -79.67155696 4.37833997 -69.40088069 4.32291877 C-48.26728403 4.20900706 -27.13365639 4.10218813 -6 4 C-5.67 3.34 -5.34 2.68 -5 2 C-3.35 2 -1.7 2 0 2 C0 1.34 0 0.68 0 0 Z " fill="#ACACAC" transform="translate(205,200)"/>
<path d="M0 0 C2.0390625 0.77734375 2.0390625 0.77734375 3.8984375 1.80078125 C6.71101225 3.08389017 9.2134702 3.20176164 12.2890625 3.40234375 C13.90554687 3.51449219 13.90554687 3.51449219 15.5546875 3.62890625 C16.37453125 3.67789063 17.194375 3.726875 18.0390625 3.77734375 C18.15550674 8.46745887 18.06597206 11.0441553 15.0390625 14.77734375 C9.62239884 18.3534282 4.69263307 18.2039416 -1.56860352 18.16552734 C-2.6245874 18.1707843 -3.68057129 18.17604126 -4.76855469 18.18145752 C-8.25080254 18.19463582 -11.73259144 18.18592743 -15.21484375 18.17578125 C-17.63809802 18.17780245 -20.06135169 18.18071427 -22.48460388 18.18447876 C-27.559375 18.18889906 -32.63398756 18.18247976 -37.70874023 18.16845703 C-44.21450434 18.15135642 -50.7198974 18.16121406 -57.22564793 18.17917442 C-62.22790831 18.19001227 -67.23008064 18.18656602 -72.23234367 18.17879105 C-74.63133729 18.17678953 -77.0303389 18.17924661 -79.4293232 18.18622971 C-82.78065314 18.19384494 -86.13138094 18.18223863 -89.48266602 18.16552734 C-90.97040779 18.17463638 -90.97040779 18.17463638 -92.48820496 18.18392944 C-97.43621063 18.13820077 -100.99123716 18.08542221 -104.9609375 14.77734375 C-107.1086793 11.81494127 -107.9609375 10.46287519 -107.9609375 6.77734375 C-107.28546875 6.59558594 -106.61 6.41382813 -105.9140625 6.2265625 C-105.02203125 5.97519531 -104.13 5.72382813 -103.2109375 5.46484375 C-102.32921875 5.22121094 -101.4475 4.97757813 -100.5390625 4.7265625 C-97.93043814 3.93666464 -97.93043814 3.93666464 -96.12890625 2.203125 C-92.92116204 0.09352746 -89.7367686 0.2638038 -86.0234375 0.27734375 C-84.96866211 0.23480469 -84.96866211 0.23480469 -83.89257812 0.19140625 C-79.89421554 0.17641707 -78.20482432 0.56882726 -75.1328125 3.1953125 C-74.05773437 4.47341797 -74.05773437 4.47341797 -72.9609375 5.77734375 C-68.40785653 8.71155149 -64.29927488 9.57614606 -58.9609375 8.77734375 C-57.4293683 8.22281007 -55.90831174 7.63848332 -54.3984375 7.02734375 C-52.10546875 6.1796875 -52.10546875 6.1796875 -49.9609375 5.77734375 C-46.5859375 7.58984375 -46.5859375 7.58984375 -44.90234375 8.76171875 C-40.86258499 10.87507343 -36.35075811 10.55164155 -31.9609375 9.77734375 C-29.94313614 8.69079093 -29.94313614 8.69079093 -28.1484375 7.27734375 C-23.46353564 3.79989082 -18.91839167 4.69141696 -13.3125 4.9375 C-9.05144611 4.73388321 -6.82747733 3.46004329 -3.609375 0.7734375 C-1.9609375 -0.22265625 -1.9609375 -0.22265625 0 0 Z " fill="#E4A31E" transform="translate(172.9609375,182.22265625)"/>
<path d="M0 0 C36.96 0 73.92 0 112 0 C112 2.97 112 5.94 112 9 C110.95430344 9.00808685 109.90860687 9.01617371 108.83122253 9.02450562 C98.98694697 9.10191736 89.14281047 9.18964398 79.29871655 9.28752708 C74.23750244 9.33751933 69.17630951 9.3838491 64.11499023 9.421875 C59.23252495 9.45869082 54.35023555 9.50504064 49.4679203 9.55806351 C47.60319408 9.57662717 45.73843013 9.59172781 43.87364769 9.60334396 C41.2660856 9.62017272 38.65892808 9.64919932 36.05151367 9.68115234 C34.88949936 9.68439262 34.88949936 9.68439262 33.70401001 9.68769836 C29.93864114 9.74682604 28.21147286 9.85901809 25 12 C24.52681638 15.01884316 24.52681638 15.01884316 24.5 18.4375 C24.33674167 24.52567531 24.33674167 24.52567531 22.6328125 26.92578125 C21 28 21 28 18.375 27.75 C16 27 16 27 15 26 C14.79554286 22.7014248 14.6804171 19.40469733 14.57421875 16.1015625 C14.27819323 12.97162466 14.27819323 12.97162466 12.28515625 11.12890625 C9.66833898 9.83615379 7.65549498 9.50365099 4.75 9.3125 C3.85796875 9.24675781 2.9659375 9.18101562 2.046875 9.11328125 C1.37140625 9.07589844 0.6959375 9.03851563 0 9 C0 6.03 0 3.06 0 0 Z " fill="#FA5C3C" transform="translate(72,139)"/>
<path d="M0 0 C15.84 0 31.68 0 48 0 C46.68 4.29 45.36 8.58 44 13 C30.8 13 17.6 13 4 13 C2.68 8.71 1.36 4.42 0 0 Z " fill="#F65A3B" transform="translate(104,42)"/>
<path d="M0 0 C11.88 0 23.76 0 36 0 C34.28662625 3.4267475 33.06151356 5.14787467 30.5 7.8125 C27.20516283 11.46353579 25.90066363 14.19646065 25 19 C23.35 19 21.7 19 20 19 C19.4740625 17.41445312 19.4740625 17.41445312 18.9375 15.796875 C17.02486284 11.33854471 14.1094311 9.58260741 10 7.25 C6.30078107 5.05927404 3.07395532 3.07395532 0 0 Z " fill="#DEB21D" transform="translate(126,153)"/>
<path d="M0 0 C7.26 0 14.52 0 22 0 C22 3.96 22 7.92 22 12 C14.74 12 7.48 12 0 12 C0 8.04 0 4.08 0 0 Z " fill="#A6A6A6" transform="translate(117,60)"/>
<path d="M0 0 C2.02734375 0.63671875 2.02734375 0.63671875 4.08984375 2.26171875 C5.43469773 5.66868216 5.53719313 8.00404193 5.02734375 11.63671875 C2.43518292 15.32858417 0.98585311 16.46555636 -3.47265625 17.26171875 C-7.93116561 16.46555636 -9.38049542 15.32858417 -11.97265625 11.63671875 C-12.75793326 7.23916751 -12.46324461 5.39633943 -10.03515625 1.63671875 C-6.27607784 -0.8181896 -4.31704616 -0.78295845 0 0 Z " fill="#0A0E10" transform="translate(164.97265625,225.36328125)"/>
<path d="M0 0 C2.8125 2.4375 2.8125 2.4375 5 5 C5.33 5.33 5.66 5.66 6 6 C5.79055915 9.70012175 5.45352732 12.29249738 3.4375 15.4375 C0.6110572 17.24932231 -1.66478716 17.69411736 -5.0234375 17.51171875 C-7 17 -7 17 -10.0625 14.4375 C-12 11 -12 11 -12.125 7.375 C-10.11926243 1.3577873 -6.31868255 -1.18475298 0 0 Z " fill="#0C1012" transform="translate(131,14)"/>
<path d="M0 0 C3.34265205 1.20706879 3.94704566 1.92056849 6 5 C6.56551375 9.36253463 6.49322651 11.29752588 3.9375 14.9375 C1 17 1 17 -2.5 17.625 C-6.95850936 16.82883761 -8.40783917 15.69186542 -11 12 C-11.625 8.5 -11.625 8.5 -11 5 C-7.76968443 0.53456377 -5.48257884 -0.81655429 0 0 Z " fill="#0A0D0F" transform="translate(97,225)"/>
<path d="M0 0 C4.45850936 0.79616239 5.90783917 1.93313458 8.5 5.625 C9.125 9.125 9.125 9.125 8.5 12.625 C6.4375 15.5625 6.4375 15.5625 3.5 17.625 C-0.0625 18.1875 -0.0625 18.1875 -3.5 17.625 C-6.80748965 15.01382396 -8.31680509 12.99896185 -8.875 8.8125 C-8.5 5.625 -8.5 5.625 -6.4375 2.75 C-3.5 0.625 -3.5 0.625 0 0 Z " fill="#090D0E" transform="translate(228.5,224.375)"/>
<path d="M0 0 C2.9375 1.4375 2.9375 1.4375 5 4 C5.71014629 7.14658314 5.71014629 9.85341686 5 13 C2.33984093 16.30504612 0.65672698 16.88272732 -3.5 17.625 C-7 17 -7 17 -10 14.4375 C-12 11 -12 11 -12.0625 7.375 C-9.9608226 0.69908356 -6.9417779 -0.97428462 0 0 Z " fill="#06090B" transform="translate(64,225)"/>
<path d="M0 0 C3.34265205 1.20706879 3.94704566 1.92056849 6 5 C6.33262248 8.90831419 6.23028561 11.71326332 4 15 C0.24952518 17.50031654 -1.55856266 17.53603554 -6 17 C-9.69186542 14.40783917 -10.82883761 12.95850936 -11.625 8.5 C-10.43770475 1.85114658 -6.64836107 -0.99018144 0 0 Z " fill="#080B0C" transform="translate(30,225)"/>
<path d="M0 0 C3.69824535 2.05458075 4.7810498 3.3431494 6.125 7.375 C6 11 6 11 4.0625 14.4375 C0.48317601 17.43244456 0.48317601 17.43244456 -3.0625 17.625 C-7 17 -7 17 -9.5 15.5625 C-11.72920717 11.75427109 -11.90705593 8.29865635 -11 4 C-7.77123438 0.10648852 -4.96361941 -0.8272699 0 0 Z " fill="#090D0E" transform="translate(198,14)"/>
<path d="M0 0 C4.25331827 0.86802414 6.18199992 2.40158324 9.0625 5.625 C9.75 9.125 9.75 9.125 9.0625 12.625 C6.47033917 16.31686542 5.02100936 17.45383761 0.5625 18.25 C-3.89600936 17.45383761 -5.34533917 16.31686542 -7.9375 12.625 C-8.5625 9.125 -8.5625 9.125 -7.9375 5.625 C-5.51605492 2.27770827 -4.06319154 0.86450884 0 0 Z " fill="#06090A" transform="translate(93.9375,13.375)"/>
<path d="M0 0 C2.86972996 1.99633389 4.65210765 3.47229883 5.44921875 6.97265625 C5.63063966 10.3195592 5.22262069 12.62896551 3.5 15.5 C0.64129512 17.21522293 -1.68377875 17.69308599 -5.0234375 17.51171875 C-7 17 -7 17 -10.0625 14.4375 C-12 11 -12 11 -12.125 7.375 C-10.11926243 1.3577873 -6.31868255 -1.18475298 0 0 Z " fill="#0A0E0F" transform="translate(64,14)"/>
<path d="M0 0 C4.25331827 0.86802414 6.18199992 2.40158324 9.0625 5.625 C9.75 9.125 9.75 9.125 9.0625 12.625 C6.47033917 16.31686542 5.02100936 17.45383761 0.5625 18.25 C-3.89600936 17.45383761 -5.34533917 16.31686542 -7.9375 12.625 C-8.5625 9.125 -8.5625 9.125 -7.9375 5.625 C-5.51605492 2.27770827 -4.06319154 0.86450884 0 0 Z " fill="#06090B" transform="translate(26.9375,13.375)"/>
<path d="M0 0 C3.74093467 2.07829704 4.79149259 3.32541719 6.0625 7.4375 C5.98713481 11.73331579 5.03450339 13.05219671 2 16 C-0.85324437 17.42662219 -2.83454549 17.31033868 -6 17 C-8.875 15.5625 -8.875 15.5625 -11 13 C-11.71534153 9.85595859 -11.71534153 7.14404141 -11 4 C-7.77123438 0.10648852 -4.96361941 -0.8272699 0 0 Z " fill="#070A0B" transform="translate(198,225)"/>
<path d="M0 0 C3.69879153 1.16443437 5.24663599 1.8273867 7.375 5.0625 C8.09625695 9.47018137 7.89501338 11.32187488 5.3125 15 C2.375 17.0625 2.375 17.0625 -1.125 17.6875 C-5.58350936 16.89133761 -7.03283917 15.75436542 -9.625 12.0625 C-10.3125 8.5625 -10.3125 8.5625 -9.625 5.0625 C-6.48302168 1.38408636 -4.88568266 0.08423591 0 0 Z " fill="#06090A" transform="translate(229.625,13.9375)"/>
<path d="M0 0 C3.69879153 1.16443437 5.24663599 1.8273867 7.375 5.0625 C8.09625695 9.47018137 7.89501338 11.32187488 5.3125 15 C2.375 17.0625 2.375 17.0625 -1.125 17.6875 C-5.58350936 16.89133761 -7.03283917 15.75436542 -9.625 12.0625 C-10.3125 8.5625 -10.3125 8.5625 -9.625 5.0625 C-6.48302168 1.38408636 -4.88568266 0.08423591 0 0 Z " fill="#06080A" transform="translate(162.625,13.9375)"/>
<path d="M0 0 C2.9375 1.4375 2.9375 1.4375 5 4 C5.70993955 7.14566713 5.71555259 9.85503094 5 13 C2.45528778 16.06862356 0.91058019 16.84823663 -3 17.5 C-6.91058019 16.84823663 -8.45528778 16.06862356 -11 13 C-11.91245385 8.67576217 -11.75071492 5.23117246 -9.4375 1.4375 C-6.02983728 -0.57214724 -3.89581737 -0.54678139 0 0 Z " fill="#040607" transform="translate(131,225)"/>
<path d="M0 0 C15.94067186 -0.86114074 15.94067186 -0.86114074 20.5 2.4375 C23 5 23 5 23 6 C15.41 6 7.82 6 0 6 C0 4.02 0 2.04 0 0 Z " fill="#793623" transform="translate(101,153)"/>
<path d="M0 0 C1.48831242 0.00667405 2.97660807 0.01863442 4.46484375 0.03515625 C5.22345703 0.03966797 5.98207031 0.04417969 6.76367188 0.04882812 C8.64326246 0.06064945 10.52281274 0.07858547 12.40234375 0.09765625 C12.40234375 1.74765625 12.40234375 3.39765625 12.40234375 5.09765625 C6.13234375 5.09765625 -0.13765625 5.09765625 -6.59765625 5.09765625 C-4.10453572 0.11141519 -4.10453572 0.11141519 0 0 Z " fill="#7F3925" transform="translate(171.59765625,153.90234375)"/>
<path d="M0 0 C5.61 0 11.22 0 17 0 C17.33 1.32 17.66 2.64 18 4 C17 5 17 5 13.40234375 5.09765625 C11.91403133 5.0909822 10.42573568 5.07902183 8.9375 5.0625 C8.17888672 5.05798828 7.42027344 5.05347656 6.63867188 5.04882812 C4.75908129 5.0370068 2.87953101 5.01907078 1 5 C0.67 3.35 0.34 1.7 0 0 Z " fill="#110604" transform="translate(110,46)"/>
<path d="M0 0 C1.64574566 -0.02688151 3.29161413 -0.04634123 4.9375 -0.0625 C5.85402344 -0.07410156 6.77054687 -0.08570313 7.71484375 -0.09765625 C10 0 10 0 11 1 C11 2.65 11 4.3 11 6 C7.37 6 3.74 6 0 6 C0 4.02 0 2.04 0 0 Z " fill="#733321" transform="translate(71,153)"/>
<path d="M0 0 C2.625 0.375 2.625 0.375 5 1 C5.625 2.875 5.625 2.875 6 5 C5.34 5.66 4.68 6.32 4 7 C1.375 6.625 1.375 6.625 -1 6 C-1.625 4.125 -1.625 4.125 -2 2 C-1.34 1.34 -0.68 0.68 0 0 Z " fill="#E5E5E5" transform="translate(126,230)"/>
<path d="M0 0 C2.625 0.375 2.625 0.375 5 1 C5.625 2.875 5.625 2.875 6 5 C5.34 5.66 4.68 6.32 4 7 C1.375 6.625 1.375 6.625 -1 6 C-1.625 4.125 -1.625 4.125 -2 2 C-1.34 1.34 -0.68 0.68 0 0 Z " fill="#E5E5E5" transform="translate(59,230)"/>
<path d="M0 0 C1.67542976 0.28604898 3.34385343 0.61781233 5 1 C5.625 2.875 5.625 2.875 6 5 C5.34 5.66 4.68 6.32 4 7 C1.375 6.625 1.375 6.625 -1 6 C-1.042721 4.33388095 -1.04063832 2.66617115 -1 1 C-0.67 0.67 -0.34 0.34 0 0 Z " fill="#EDEDED" transform="translate(193,230)"/>
<path d="M0 0 C2.125 0.375 2.125 0.375 4 1 C4.38218767 2.65614657 4.71395102 4.32457024 5 6 C4 7 4 7 1.4375 7.0625 C0.2309375 7.0315625 0.2309375 7.0315625 -1 7 C-1.625 4.625 -1.625 4.625 -2 2 C-1.34 1.34 -0.68 0.68 0 0 Z " fill="#EFEFEF" transform="translate(227,19)"/>
<path d="M0 0 C1.67542976 0.28604898 3.34385343 0.61781233 5 1 C5.625 2.875 5.625 2.875 6 5 C5.34 5.66 4.68 6.32 4 7 C1.375 6.625 1.375 6.625 -1 6 C-1.042721 4.33388095 -1.04063832 2.66617115 -1 1 C-0.67 0.67 -0.34 0.34 0 0 Z " fill="#E9E9E9" transform="translate(193,19)"/>
<path d="M0 0 C2.125 0.375 2.125 0.375 4 1 C4.38218767 2.65614657 4.71395102 4.32457024 5 6 C4 7 4 7 1.4375 7.0625 C0.2309375 7.0315625 0.2309375 7.0315625 -1 7 C-1.625 4.625 -1.625 4.625 -2 2 C-1.34 1.34 -0.68 0.68 0 0 Z " fill="#EFEFEF" transform="translate(160,19)"/>
<path d="M0 0 C2.125 0.375 2.125 0.375 4 1 C4.38218767 2.65614657 4.71395102 4.32457024 5 6 C4 7 4 7 1.4375 7.0625 C0.2309375 7.0315625 0.2309375 7.0315625 -1 7 C-1.625 4.625 -1.625 4.625 -2 2 C-1.34 1.34 -0.68 0.68 0 0 Z " fill="#EFEFEF" transform="translate(93,19)"/>
<path d="M0 0 C2.125 0.375 2.125 0.375 4 1 C4.38218767 2.65614657 4.71395102 4.32457024 5 6 C4 7 4 7 1.4375 7.0625 C0.2309375 7.0315625 0.2309375 7.0315625 -1 7 C-1.625 4.625 -1.625 4.625 -2 2 C-1.34 1.34 -0.68 0.68 0 0 Z " fill="#EFEFEF" transform="translate(26,19)"/>
<path d="M0 0 C1.67542976 0.28604898 3.34385343 0.61781233 5 1 C5.625 2.875 5.625 2.875 6 5 C5.34 5.66 4.68 6.32 4 7 C1.875 6.625 1.875 6.625 0 6 C-0.38218767 4.34385343 -0.71395102 2.67542976 -1 1 C-0.67 0.67 -0.34 0.34 0 0 Z " fill="#F5F5F5" transform="translate(25,230)"/>
<path d="M0 0 C1.67542976 0.28604898 3.34385343 0.61781233 5 1 C5 2.65 5 4.3 5 6 C3.34385343 6.38218767 1.67542976 6.71395102 0 7 C-1 6 -1 6 -1.125 3.5 C-1 1 -1 1 0 0 Z " fill="#F0F0F0" transform="translate(126,19)"/>
<path d="M0 0 C1.67542976 0.28604898 3.34385343 0.61781233 5 1 C5 2.65 5 4.3 5 6 C3.34385343 6.38218767 1.67542976 6.71395102 0 7 C-1 6 -1 6 -1.125 3.5 C-1 1 -1 1 0 0 Z " fill="#F0F0F0" transform="translate(59,19)"/>
<path d="M0 0 C2.125 0.375 2.125 0.375 4 1 C4.625 2.875 4.625 2.875 5 5 C4.34 5.66 3.68 6.32 3 7 C0.875 6.625 0.875 6.625 -1 6 C-1.625 4.125 -1.625 4.125 -2 2 C-1.34 1.34 -0.68 0.68 0 0 Z " fill="#FBFBFB" transform="translate(227,230)"/>
<path d="M0 0 C2.125 0.375 2.125 0.375 4 1 C4.625 2.875 4.625 2.875 5 5 C4.34 5.66 3.68 6.32 3 7 C0.875 6.625 0.875 6.625 -1 6 C-1.625 4.125 -1.625 4.125 -2 2 C-1.34 1.34 -0.68 0.68 0 0 Z " fill="#FBFBFB" transform="translate(160,230)"/>
<path d="M0 0 C2.125 0.375 2.125 0.375 4 1 C4.625 2.875 4.625 2.875 5 5 C4.34 5.66 3.68 6.32 3 7 C0.875 6.625 0.875 6.625 -1 6 C-1.625 4.125 -1.625 4.125 -2 2 C-1.34 1.34 -0.68 0.68 0 0 Z " fill="#FBFBFB" transform="translate(93,230)"/>
<path d="M0 0 C2.0625 0.4375 2.0625 0.4375 4 1 C4 2.65 4 4.3 4 6 C2.0625 6.5625 2.0625 6.5625 0 7 C-1 6 -1 6 -1.125 3.5 C-1 1 -1 1 0 0 Z " fill="#100B02" transform="translate(143,111)"/>
<path d="M0 0 C2.0625 0.4375 2.0625 0.4375 4 1 C4 2.65 4 4.3 4 6 C2.0625 6.5625 2.0625 6.5625 0 7 C-1 6 -1 6 -1.125 3.5 C-1 1 -1 1 0 0 Z " fill="#100B02" transform="translate(110,111)"/>
<path d="M0 0 C0.99 0.33 1.98 0.66 3 1 C3 2.98 3 4.96 3 7 C1.35 6.67 -0.3 6.34 -2 6 C-1.125 1.125 -1.125 1.125 0 0 Z " fill="#1A1203" transform="translate(127,115)"/>
<path d="M0 0 C1.98 0.495 1.98 0.495 4 1 C3.67 2.65 3.34 4.3 3 6 C1.68 5.67 0.36 5.34 -1 5 C-0.67 3.35 -0.34 1.7 0 0 Z " fill="#031D11" transform="translate(108,177)"/>
<path d="M0 0 C1.9375 0.3125 1.9375 0.3125 4 1 C4.33 1.99 4.66 2.98 5 4 C4 5 4 5 1.4375 5.0625 C0.2309375 5.0315625 0.2309375 5.0315625 -1 5 C-0.67 3.35 -0.34 1.7 0 0 Z " fill="#040708" transform="translate(43,37)"/>
<path d="M0 0 C1.65 0 3.3 0 5 0 C4.67 1.65 4.34 3.3 4 5 C2.68 4.67 1.36 4.34 0 4 C0 2.68 0 1.36 0 0 Z " fill="#050505" transform="translate(205,200)"/>
<path d="M0 0 C1.32 0 2.64 0 4 0 C4 1.65 4 3.3 4 5 C2.35 4.67 0.7 4.34 -1 4 C-0.67 2.68 -0.34 1.36 0 0 Z " fill="#011009" transform="translate(160,172)"/>
<path d="M0 0 C2.475 0.495 2.475 0.495 5 1 C4.67 2.32 4.34 3.64 4 5 C2.68 5 1.36 5 0 5 C0 3.35 0 1.7 0 0 Z " fill="#030200" transform="translate(174,102)"/>
<path d="M0 0 C1.32 0 2.64 0 4 0 C4 1.65 4 3.3 4 5 C2.68 5 1.36 5 0 5 C0 3.35 0 1.7 0 0 Z " fill="#011109" transform="translate(69,169)"/>
<path d="M0 0 C1.98 0.495 1.98 0.495 4 1 C4 2.32 4 3.64 4 5 C2.35 4.67 0.7 4.34 -1 4 C-0.67 2.68 -0.34 1.36 0 0 Z " fill="#010E08" transform="translate(190,167)"/>
<path d="M0 0 C1.98 0.495 1.98 0.495 4 1 C3.67 2.32 3.34 3.64 3 5 C1.68 4.67 0.36 4.34 -1 4 C-0.67 2.68 -0.34 1.36 0 0 Z " fill="#0C0403" transform="translate(142,46)"/>
<path d="M0 0 C1.98 0.495 1.98 0.495 4 1 C3.67 2.32 3.34 3.64 3 5 C1.68 4.67 0.36 4.34 -1 4 C-0.67 2.68 -0.34 1.36 0 0 Z " fill="#0B0402" transform="translate(133,46)"/>
<path d="M0 0 C1.32 0 2.64 0 4 0 C4 1.65 4 3.3 4 5 C2.68 5 1.36 5 0 5 C0 3.35 0 1.7 0 0 Z " fill="#000805" transform="translate(115,169)"/>
</svg>
